<?xml version="1.0" encoding="utf-8"?>
<!-- Generator: Circuit Diagram 3.1.0  (Build 3), cdlibrary.dll 1.0.0.0 -->
<!DOCTYPE svg PUBLIC "-//W3C//DTD SVG 1.1//EN" "http://www.w3.org/Graphics/SVG/1.1/DTD/svg11.dtd">
<svg version="1.1" width="580" height="300" xmlns="http://www.w3.org/2000/svg">
  <rect x="30" y="100" width="100" height="60" style="fill-opacity:0;stroke:rgb(0,0,0);stroke-width:2" />
  <line x1="20" y1="110" x2="30" y2="110" style="stroke:rgb(0,0,0);stroke-linecap:square;stroke-width:2" />
  <line x1="20" y1="130" x2="30" y2="130" style="stroke:rgb(0,0,0);stroke-linecap:square;stroke-width:2" />
  <line x1="130" y1="110" x2="140" y2="110" style="stroke:rgb(0,0,0);stroke-linecap:square;stroke-width:2" />
  <line x1="130" y1="130" x2="140" y2="130" style="stroke:rgb(0,0,0);stroke-linecap:square;stroke-width:2" />
  <text x="34" y="110" style="font-family:Arial;font-size:12;text-anchor:start" dy=".3em">INT</text>
  <text x="34" y="130" style="font-family:Arial;font-size:12;text-anchor:start" dy=".3em">VCC</text>
  <text x="126" y="110" style="font-family:Arial;font-size:12;text-anchor:end" dy=".3em">SCL</text>
  <text x="126" y="130" style="font-family:Arial;font-size:12;text-anchor:end" dy=".3em">SDA</text>
  <line x1="20" y1="150" x2="30" y2="150" style="stroke:rgb(0,0,0);stroke-linecap:square;stroke-width:2" />
  <line x1="130" y1="150" x2="140" y2="150" style="stroke:rgb(0,0,0);stroke-linecap:square;stroke-width:2" />
  <text x="34" y="150" style="font-family:Arial;font-size:12;text-anchor:start" dy=".3em">GND</text>
  <text x="126" y="150" style="font-family:Arial;font-size:12;text-anchor:end" dy=".3em" />
  <rect x="440" y="40" width="100" height="80" style="fill-opacity:0;stroke:rgb(0,0,0);stroke-width:2" />
  <line x1="430" y1="50" x2="440" y2="50" style="stroke:rgb(0,0,0);stroke-linecap:square;stroke-width:2" />
  <line x1="430" y1="70" x2="440" y2="70" style="stroke:rgb(0,0,0);stroke-linecap:square;stroke-width:2" />
  <line x1="540" y1="50" x2="550" y2="50" style="stroke:rgb(0,0,0);stroke-linecap:square;stroke-width:2" />
  <line x1="540" y1="70" x2="550" y2="70" style="stroke:rgb(0,0,0);stroke-linecap:square;stroke-width:2" />
  <text x="444" y="50" style="font-family:Arial;font-size:12;text-anchor:start" dy=".3em">GND</text>
  <text x="444" y="70" style="font-family:Arial;font-size:12;text-anchor:start" dy=".3em">CE</text>
  <text x="536" y="50" style="font-family:Arial;font-size:12;text-anchor:end" dy=".3em">VCC</text>
  <text x="536" y="70" style="font-family:Arial;font-size:12;text-anchor:end" dy=".3em">CSN</text>
  <line x1="430" y1="90" x2="440" y2="90" style="stroke:rgb(0,0,0);stroke-linecap:square;stroke-width:2" />
  <line x1="540" y1="90" x2="550" y2="90" style="stroke:rgb(0,0,0);stroke-linecap:square;stroke-width:2" />
  <text x="444" y="90" style="font-family:Arial;font-size:12;text-anchor:start" dy=".3em">SCK</text>
  <text x="536" y="90" style="font-family:Arial;font-size:12;text-anchor:end" dy=".3em">MOSI</text>
  <line x1="430" y1="110" x2="440" y2="110" style="stroke:rgb(0,0,0);stroke-linecap:square;stroke-width:2" />
  <line x1="540" y1="110" x2="550" y2="110" style="stroke:rgb(0,0,0);stroke-linecap:square;stroke-width:2" />
  <text x="444" y="110" style="font-family:Arial;font-size:12;text-anchor:start" dy=".3em">MISO</text>
  <text x="536" y="110" style="font-family:Arial;font-size:12;text-anchor:end" dy=".3em">IRQ</text>
  <rect x="30" y="40" width="100" height="40" style="fill-opacity:0;stroke:rgb(0,0,0);stroke-width:2" />
  <line x1="20" y1="50" x2="30" y2="50" style="stroke:rgb(0,0,0);stroke-linecap:square;stroke-width:2" />
  <line x1="20" y1="70" x2="30" y2="70" style="stroke:rgb(0,0,0);stroke-linecap:square;stroke-width:2" />
  <line x1="130" y1="50" x2="140" y2="50" style="stroke:rgb(0,0,0);stroke-linecap:square;stroke-width:2" />
  <line x1="130" y1="70" x2="140" y2="70" style="stroke:rgb(0,0,0);stroke-linecap:square;stroke-width:2" />
  <text x="34" y="50" style="font-family:Arial;font-size:12;text-anchor:start" dy=".3em">VIN</text>
  <text x="34" y="70" style="font-family:Arial;font-size:12;text-anchor:start" dy=".3em">GND</text>
  <text x="126" y="50" style="font-family:Arial;font-size:12;text-anchor:end" dy=".3em">SCL</text>
  <text x="126" y="70" style="font-family:Arial;font-size:12;text-anchor:end" dy=".3em">SDA</text>
  <rect x="30" y="230" width="100" height="40" style="fill-opacity:0;stroke:rgb(0,0,0);stroke-width:2" />
  <line x1="20" y1="240" x2="30" y2="240" style="stroke:rgb(0,0,0);stroke-linecap:square;stroke-width:2" />
  <line x1="20" y1="260" x2="30" y2="260" style="stroke:rgb(0,0,0);stroke-linecap:square;stroke-width:2" />
  <line x1="130" y1="240" x2="140" y2="240" style="stroke:rgb(0,0,0);stroke-linecap:square;stroke-width:2" />
  <line x1="130" y1="260" x2="140" y2="260" style="stroke:rgb(0,0,0);stroke-linecap:square;stroke-width:2" />
  <text x="34" y="240" style="font-family:Arial;font-size:12;text-anchor:start" dy=".3em">VCC</text>
  <text x="34" y="260" style="font-family:Arial;font-size:12;text-anchor:start" dy=".3em">GND</text>
  <text x="126" y="240" style="font-family:Arial;font-size:12;text-anchor:end" dy=".3em">D0</text>
  <text x="126" y="260" style="font-family:Arial;font-size:12;text-anchor:end" dy=".3em">A0</text>
  <rect x="220" y="40" width="100" height="180" style="fill-opacity:0;stroke:rgb(0,0,0);stroke-width:2" />
  <line x1="210" y1="50" x2="220" y2="50" style="stroke:rgb(0,0,0);stroke-linecap:square;stroke-width:2" />
  <line x1="210" y1="70" x2="220" y2="70" style="stroke:rgb(0,0,0);stroke-linecap:square;stroke-width:2" />
  <line x1="320" y1="50" x2="330" y2="50" style="stroke:rgb(0,0,0);stroke-linecap:square;stroke-width:2" />
  <line x1="320" y1="70" x2="330" y2="70" style="stroke:rgb(0,0,0);stroke-linecap:square;stroke-width:2" />
  <text x="224" y="50" style="font-family:Arial;font-size:12;text-anchor:start" dy=".3em">3.3V</text>
  <text x="224" y="70" style="font-family:Arial;font-size:12;text-anchor:start" dy=".3em">5V</text>
  <text x="316" y="50" style="font-family:Arial;font-size:12;text-anchor:end" dy=".3em">GND</text>
  <text x="316" y="70" style="font-family:Arial;font-size:12;text-anchor:end" dy=".3em">D13</text>
  <line x1="210" y1="90" x2="220" y2="90" style="stroke:rgb(0,0,0);stroke-linecap:square;stroke-width:2" />
  <line x1="320" y1="90" x2="330" y2="90" style="stroke:rgb(0,0,0);stroke-linecap:square;stroke-width:2" />
  <text x="224" y="90" style="font-family:Arial;font-size:12;text-anchor:start" dy=".3em">GND</text>
  <text x="316" y="90" style="font-family:Arial;font-size:12;text-anchor:end" dy=".3em">D12</text>
  <line x1="210" y1="110" x2="220" y2="110" style="stroke:rgb(0,0,0);stroke-linecap:square;stroke-width:2" />
  <line x1="320" y1="110" x2="330" y2="110" style="stroke:rgb(0,0,0);stroke-linecap:square;stroke-width:2" />
  <text x="224" y="110" style="font-family:Arial;font-size:12;text-anchor:start" dy=".3em">A1</text>
  <text x="316" y="110" style="font-family:Arial;font-size:12;text-anchor:end" dy=".3em">D11</text>
  <line x1="210" y1="130" x2="220" y2="130" style="stroke:rgb(0,0,0);stroke-linecap:square;stroke-width:2" />
  <line x1="320" y1="130" x2="330" y2="130" style="stroke:rgb(0,0,0);stroke-linecap:square;stroke-width:2" />
  <text x="224" y="130" style="font-family:Arial;font-size:12;text-anchor:start" dy=".3em">A4</text>
  <text x="316" y="130" style="font-family:Arial;font-size:12;text-anchor:end" dy=".3em">D9</text>
  <line x1="210" y1="150" x2="220" y2="150" style="stroke:rgb(0,0,0);stroke-linecap:square;stroke-width:2" />
  <line x1="320" y1="150" x2="330" y2="150" style="stroke:rgb(0,0,0);stroke-linecap:square;stroke-width:2" />
  <text x="224" y="150" style="font-family:Arial;font-size:12;text-anchor:start" dy=".3em">A5</text>
  <text x="316" y="150" style="font-family:Arial;font-size:12;text-anchor:end" dy=".3em">D8</text>
  <line x1="210" y1="170" x2="220" y2="170" style="stroke:rgb(0,0,0);stroke-linecap:square;stroke-width:2" />
  <line x1="320" y1="170" x2="330" y2="170" style="stroke:rgb(0,0,0);stroke-linecap:square;stroke-width:2" />
  <text x="224" y="170" style="font-family:Arial;font-size:12;text-anchor:start" dy=".3em" />
  <text x="316" y="170" style="font-family:Arial;font-size:12;text-anchor:end" dy=".3em">D7</text>
  <line x1="210" y1="190" x2="220" y2="190" style="stroke:rgb(0,0,0);stroke-linecap:square;stroke-width:2" />
  <line x1="320" y1="190" x2="330" y2="190" style="stroke:rgb(0,0,0);stroke-linecap:square;stroke-width:2" />
  <text x="224" y="190" style="font-family:Arial;font-size:12;text-anchor:start" dy=".3em" />
  <text x="316" y="190" style="font-family:Arial;font-size:12;text-anchor:end" dy=".3em">D3</text>
  <line x1="210" y1="210" x2="220" y2="210" style="stroke:rgb(0,0,0);stroke-linecap:square;stroke-width:2" />
  <line x1="320" y1="210" x2="330" y2="210" style="stroke:rgb(0,0,0);stroke-linecap:square;stroke-width:2" />
  <text x="224" y="210" style="font-family:Arial;font-size:12;text-anchor:start" dy=".3em" />
  <text x="316" y="210" style="font-family:Arial;font-size:12;text-anchor:end" dy=".3em">D2</text>
  <line x1="200" y1="270" x2="260" y2="270" style="stroke:rgb(0,0,0);stroke-linecap:square;stroke-width:2" />
  <rect x="260" y="262" width="40" height="16" style="fill-opacity:0;stroke:rgb(0,0,0);stroke-width:2" />
  <line x1="300" y1="270" x2="360" y2="270" style="stroke:rgb(0,0,0);stroke-linecap:square;stroke-width:2" />
  <text x="280" y="253" style="font-family:Arial;font-size:10;text-anchor:middle" dy=".3em">1 kΩ</text>
  <line x1="380" y1="190" x2="380" y2="226" style="stroke:rgb(0,0,0);stroke-linecap:square;stroke-width:2" />
  <line x1="380" y1="254" x2="380" y2="290" style="stroke:rgb(0,0,0);stroke-linecap:square;stroke-width:2" />
  <ellipse cx="380" cy="229" rx="3" ry="3" style="fill-opacity:0;fill:rgb(0,0,0);stroke:rgb(0,0,0);stroke-width:2" />
  <ellipse cx="380" cy="251" rx="3" ry="3" style="fill-opacity:0;fill:rgb(0,0,0);stroke:rgb(0,0,0);stroke-width:2" />
  <line x1="378" y1="232" x2="372" y2="249" style="stroke:rgb(0,0,0);stroke-linecap:square;stroke-width:2" />
  <text x="440" y="240" style="font-family:Arial;font-size:10;text-anchor:middle" dy=".3em">Anemomenter Interrupt</text>
  <text x="490" y="20" style="font-family:Arial;font-size:10;text-anchor:middle" dy=".3em">Antenna</text>
  <text x="80" y="280" style="font-family:Arial;font-size:10;text-anchor:middle" dy=".3em">Raindrop Sensor</text>
  <text x="80" y="30" style="font-family:Arial;font-size:10;text-anchor:middle" dy=".3em">Temperature Sensor</text>
  <text x="80" y="170" style="font-family:Arial;font-size:10;text-anchor:middle" dy=".3em">Ambient Light Sensor</text>
  <text x="270" y="20" style="font-family:Arial;font-size:10;text-anchor:middle" dy=".3em">Arduino UNO</text>
  <line x1="330" y1="50" x2="430" y2="50" style="stroke:rgb(0,0,0);stroke-linecap:square;stroke-width:2" />
  <line x1="210" y1="30" x2="210" y2="50" style="stroke:rgb(0,0,0);stroke-linecap:square;stroke-width:2" />
  <line x1="210" y1="30" x2="550" y2="30" style="stroke:rgb(0,0,0);stroke-linecap:square;stroke-width:2" />
  <line x1="550" y1="30" x2="550" y2="50" style="stroke:rgb(0,0,0);stroke-linecap:square;stroke-width:2" />
  <line x1="330" y1="130" x2="410" y2="130" style="stroke:rgb(0,0,0);stroke-linecap:square;stroke-width:2" />
  <line x1="410" y1="70" x2="410" y2="130" style="stroke:rgb(0,0,0);stroke-linecap:square;stroke-width:2" />
  <line x1="410" y1="70" x2="430" y2="70" style="stroke:rgb(0,0,0);stroke-linecap:square;stroke-width:2" />
  <line x1="330" y1="150" x2="570" y2="150" style="stroke:rgb(0,0,0);stroke-linecap:square;stroke-width:2" />
  <line x1="550" y1="70" x2="570" y2="70" style="stroke:rgb(0,0,0);stroke-linecap:square;stroke-width:2" />
  <line x1="570" y1="70" x2="570" y2="150" style="stroke:rgb(0,0,0);stroke-linecap:square;stroke-width:2" />
  <line x1="330" y1="70" x2="400" y2="70" style="stroke:rgb(0,0,0);stroke-linecap:square;stroke-width:2" />
  <line x1="400" y1="70" x2="400" y2="90" style="stroke:rgb(0,0,0);stroke-linecap:square;stroke-width:2" />
  <line x1="400" y1="90" x2="430" y2="90" style="stroke:rgb(0,0,0);stroke-linecap:square;stroke-width:2" />
  <line x1="550" y1="90" x2="560" y2="90" style="stroke:rgb(0,0,0);stroke-linecap:square;stroke-width:2" />
  <line x1="330" y1="110" x2="400" y2="110" style="stroke:rgb(0,0,0);stroke-linecap:square;stroke-width:2" />
  <line x1="400" y1="110" x2="400" y2="140" style="stroke:rgb(0,0,0);stroke-linecap:square;stroke-width:2" />
  <line x1="400" y1="140" x2="560" y2="140" style="stroke:rgb(0,0,0);stroke-linecap:square;stroke-width:2" />
  <line x1="560" y1="90" x2="560" y2="140" style="stroke:rgb(0,0,0);stroke-linecap:square;stroke-width:2" />
  <line x1="330" y1="90" x2="390" y2="90" style="stroke:rgb(0,0,0);stroke-linecap:square;stroke-width:2" />
  <line x1="390" y1="90" x2="390" y2="100" style="stroke:rgb(0,0,0);stroke-linecap:square;stroke-width:2" />
  <line x1="390" y1="100" x2="430" y2="100" style="stroke:rgb(0,0,0);stroke-linecap:square;stroke-width:2" />
  <line x1="430" y1="100" x2="430" y2="110" style="stroke:rgb(0,0,0);stroke-linecap:square;stroke-width:2" />
  <line x1="140" y1="110" x2="150" y2="110" style="stroke:rgb(0,0,0);stroke-linecap:square;stroke-width:2" />
  <line x1="140" y1="50" x2="150" y2="50" style="stroke:rgb(0,0,0);stroke-linecap:square;stroke-width:2" />
  <line x1="140" y1="130" x2="210" y2="130" style="stroke:rgb(0,0,0);stroke-linecap:square;stroke-width:2" />
  <line x1="150" y1="50" x2="150" y2="150" style="stroke:rgb(0,0,0);stroke-linecap:square;stroke-width:2" />
  <line x1="150" y1="150" x2="210" y2="150" style="stroke:rgb(0,0,0);stroke-linecap:square;stroke-width:2" />
  <line x1="140" y1="70" x2="160" y2="70" style="stroke:rgb(0,0,0);stroke-linecap:square;stroke-width:2" />
  <line x1="160" y1="70" x2="160" y2="130" style="stroke:rgb(0,0,0);stroke-linecap:square;stroke-width:2" />
  <line x1="190" y1="70" x2="210" y2="70" style="stroke:rgb(0,0,0);stroke-linecap:square;stroke-width:2" />
  <line x1="200" y1="90" x2="210" y2="90" style="stroke:rgb(0,0,0);stroke-linecap:square;stroke-width:2" />
  <line x1="20" y1="20" x2="20" y2="50" style="stroke:rgb(0,0,0);stroke-linecap:square;stroke-width:2" />
  <line x1="10" y1="70" x2="20" y2="70" style="stroke:rgb(0,0,0);stroke-linecap:square;stroke-width:2" />
  <line x1="10" y1="10" x2="10" y2="70" style="stroke:rgb(0,0,0);stroke-linecap:square;stroke-width:2" />
  <line x1="20" y1="20" x2="190" y2="20" style="stroke:rgb(0,0,0);stroke-linecap:square;stroke-width:2" />
  <line x1="190" y1="20" x2="190" y2="70" style="stroke:rgb(0,0,0);stroke-linecap:square;stroke-width:2" />
  <line x1="10" y1="10" x2="200" y2="10" style="stroke:rgb(0,0,0);stroke-linecap:square;stroke-width:2" />
  <line x1="200" y1="10" x2="200" y2="90" style="stroke:rgb(0,0,0);stroke-linecap:square;stroke-width:2" />
  <line x1="20" y1="150" x2="20" y2="200" style="stroke:rgb(0,0,0);stroke-linecap:square;stroke-width:2" />
  <line x1="20" y1="200" x2="200" y2="200" style="stroke:rgb(0,0,0);stroke-linecap:square;stroke-width:2" />
  <line x1="10" y1="130" x2="20" y2="130" style="stroke:rgb(0,0,0);stroke-linecap:square;stroke-width:2" />
  <line x1="10" y1="130" x2="10" y2="190" style="stroke:rgb(0,0,0);stroke-linecap:square;stroke-width:2" />
  <line x1="10" y1="190" x2="190" y2="190" style="stroke:rgb(0,0,0);stroke-linecap:square;stroke-width:2" />
  <line x1="190" y1="70" x2="190" y2="170" style="stroke:rgb(0,0,0);stroke-linecap:square;stroke-width:2" />
  <line x1="200" y1="90" x2="200" y2="180" style="stroke:rgb(0,0,0);stroke-linecap:square;stroke-width:2" />
  <line x1="20" y1="220" x2="20" y2="240" style="stroke:rgb(0,0,0);stroke-linecap:square;stroke-width:2" />
  <line x1="10" y1="260" x2="20" y2="260" style="stroke:rgb(0,0,0);stroke-linecap:square;stroke-width:2" />
  <line x1="10" y1="210" x2="10" y2="260" style="stroke:rgb(0,0,0);stroke-linecap:square;stroke-width:2" />
  <line x1="20" y1="220" x2="190" y2="220" style="stroke:rgb(0,0,0);stroke-linecap:square;stroke-width:2" />
  <line x1="10" y1="210" x2="200" y2="210" style="stroke:rgb(0,0,0);stroke-linecap:square;stroke-width:2" />
  <line x1="200" y1="180" x2="200" y2="210" style="stroke:rgb(0,0,0);stroke-linecap:square;stroke-width:2" />
  <line x1="190" y1="170" x2="190" y2="220" style="stroke:rgb(0,0,0);stroke-linecap:square;stroke-width:2" />
  <line x1="180" y1="110" x2="210" y2="110" style="stroke:rgb(0,0,0);stroke-linecap:square;stroke-width:2" />
  <line x1="180" y1="110" x2="180" y2="260" style="stroke:rgb(0,0,0);stroke-linecap:square;stroke-width:2" />
  <line x1="140" y1="260" x2="180" y2="260" style="stroke:rgb(0,0,0);stroke-linecap:square;stroke-width:2" />
  <line x1="140" y1="240" x2="330" y2="240" style="stroke:rgb(0,0,0);stroke-linecap:square;stroke-width:2" />
  <line x1="330" y1="210" x2="330" y2="240" style="stroke:rgb(0,0,0);stroke-linecap:square;stroke-width:2" />
  <line x1="20" y1="90" x2="20" y2="110" style="stroke:rgb(0,0,0);stroke-linecap:square;stroke-width:2" />
  <line x1="20" y1="90" x2="170" y2="90" style="stroke:rgb(0,0,0);stroke-linecap:square;stroke-width:2" />
  <line x1="170" y1="90" x2="170" y2="230" style="stroke:rgb(0,0,0);stroke-linecap:square;stroke-width:2" />
  <line x1="170" y1="230" x2="350" y2="230" style="stroke:rgb(0,0,0);stroke-linecap:square;stroke-width:2" />
  <line x1="350" y1="170" x2="350" y2="230" style="stroke:rgb(0,0,0);stroke-linecap:square;stroke-width:2" />
  <line x1="330" y1="170" x2="350" y2="170" style="stroke:rgb(0,0,0);stroke-linecap:square;stroke-width:2" />
  <line x1="330" y1="190" x2="360" y2="190" style="stroke:rgb(0,0,0);stroke-linecap:square;stroke-width:2" />
  <line x1="200" y1="210" x2="200" y2="270" style="stroke:rgb(0,0,0);stroke-linecap:square;stroke-width:2" />
  <line x1="360" y1="190" x2="360" y2="270" style="stroke:rgb(0,0,0);stroke-linecap:square;stroke-width:2" />
  <line x1="190" y1="220" x2="190" y2="290" style="stroke:rgb(0,0,0);stroke-linecap:square;stroke-width:2" />
  <line x1="190" y1="290" x2="380" y2="290" style="stroke:rgb(0,0,0);stroke-linecap:square;stroke-width:2" />
  <line x1="360" y1="190" x2="380" y2="190" style="stroke:rgb(0,0,0);stroke-linecap:square;stroke-width:2" />
  <ellipse cx="150" cy="110" rx="2" ry="2" style="fill-opacity:1;fill:rgb(0,0,0);stroke:rgb(0,0,0);stroke-width:2" />
  <ellipse cx="160" cy="130" rx="2" ry="2" style="fill-opacity:1;fill:rgb(0,0,0);stroke:rgb(0,0,0);stroke-width:2" />
  <ellipse cx="190" cy="70" rx="2" ry="2" style="fill-opacity:1;fill:rgb(0,0,0);stroke:rgb(0,0,0);stroke-width:2" />
  <ellipse cx="200" cy="90" rx="2" ry="2" style="fill-opacity:1;fill:rgb(0,0,0);stroke:rgb(0,0,0);stroke-width:2" />
  <ellipse cx="200" cy="200" rx="2" ry="2" style="fill-opacity:1;fill:rgb(0,0,0);stroke:rgb(0,0,0);stroke-width:2" />
  <ellipse cx="190" cy="190" rx="2" ry="2" style="fill-opacity:1;fill:rgb(0,0,0);stroke:rgb(0,0,0);stroke-width:2" />
  <ellipse cx="190" cy="220" rx="2" ry="2" style="fill-opacity:1;fill:rgb(0,0,0);stroke:rgb(0,0,0);stroke-width:2" />
  <ellipse cx="200" cy="210" rx="2" ry="2" style="fill-opacity:1;fill:rgb(0,0,0);stroke:rgb(0,0,0);stroke-width:2" />
  <ellipse cx="360" cy="190" rx="2" ry="2" style="fill-opacity:1;fill:rgb(0,0,0);stroke:rgb(0,0,0);stroke-width:2" />
</svg>